# xmcd
#
# Track frame offsets: 
#        150
#        19063
#        41679
#        65045
#        80029
#        100459
#        118483
#        134996
#        150988
#        168285
#        187959
#        206935
#        222416
#        255463
#
# Disc length: 3685 seconds
#
# Revision: 1
# Processed by: cddbd v1.5.2PL0 Copyright (c) Steve Scherf et al.
# Submitted via: ExactAudioCopy v1.0b3
#
DISCID=d70e630e
DTITLE=Jimmy Webb - Still Within The Sound Of My Voice
DYEAR=2013
DGENRE=Country
TTITLE0=Sleepin´ In The Daytime - feat. Lyle Lovett
TTITLE1=Easy For You To Say - feat. Carly Simon
TTITLE2=Elvis And Me - feat. The Jordanaires
TTITLE3=Where´s The Playground, Susi? - feat. Keith Urban
TTITLE4=Still Within The Sound Of My Voice - feat. Rumer
TTITLE5=If These Walls Could Speak - feat. David Crosby and Graham Nas
TTITLE5=h
TTITLE6=The Moon´s A Harsh Mistress - feat. Joe Cocker
TTITLE7=Another Lullaby - feat. Marc Cohn
TTITLE8=You Cant Treat The Wrong Man Right - feat. Justin Currie
TTITLE9=Rider From Nowhere - feat. America
TTITLE10=Honey Come Back - feat. Kris Kristofferson
TTITLE11=Adios - feat. Amy Grant
TTITLE12=MacArthur Park - feat. Brian Wilson
TTITLE13=Shattered - feat. Art Garfunkel
EXTD=
EXTT0=
EXTT1=
EXTT2=
EXTT3=
EXTT4=
EXTT5=
EXTT6=
EXTT7=
EXTT8=
EXTT9=
EXTT10=
EXTT11=
EXTT12=
EXTT13=
PLAYORDER=
